<svg width="18" height="26" viewBox="0 0 18 26" xmlns="http://www.w3.org/2000/svg"><title>Shape</title><path d="M14.57 16.47l3.432 6.535-3.652.294L12.05 26l-3.03-4.784L5.989 26l-2.446-2.738L0 23.005l3.433-6.536.037-.037c.037.256.145.439.292.658.256.365.657.584 1.131.84.403.145.767.219 1.096.219.366 0 .73-.073.95-.22.183.146.365.33.584.439.366.22.84.365 1.388.365.511 0 .95-.146 1.352-.365.219-.11.364-.292.51-.439.328.146.657.22 1.023.22.328 0 .657-.073 1.057-.22.548-.255.877-.474 1.133-.84.147-.218.292-.401.366-.657.037.037.072.037.145.037h.074zm3.068-7.706c0 .365-.074.657-.219.876-.184.402-2.3.293-2.703.293h-.072.072c.366.182 2.337.84 2.374 1.242.073.291 0 .584-.147.949-.29.803-.839.986-1.167.986-.22 0-1.826-.95-1.9-1.022l-.109-.037.037.037c.22.218 1.898 1.679 1.753 2.044a1.686 1.686 0 0 1-.475.804c-.366.365-.695.547-1.096.547-.219 0-1.57-1.57-1.789-1.79l-.037-.036v.11c.146.292 1.06 2.227.84 2.52-.182.218-.402.438-.766.547-.256.11-.512.182-.73.182-.476 0-1.242-2.044-1.462-2.41v-.072.072c0 .365.11 2.484-.256 2.666-.219.183-.548.255-.875.255-.403 0-.695-.072-.914-.255-.364-.182-.255-2.3-.255-2.666v-.072l-.037.072c-.146.365-.949 2.41-1.46 2.41-.182 0-.438-.072-.73-.182-.33-.11-.548-.329-.73-.548-.256-.292.656-2.227.803-2.52l.072-.109-.145.037c-.22.219-1.534 1.789-1.753 1.789-.329 0-.694-.182-1.059-.547-.255-.256-.439-.512-.476-.804-.108-.365 1.462-1.826 1.68-2.044l.11-.037-.146.037c-.073.072-1.68 1.022-1.826 1.022-.4 0-.876-.183-1.241-.986-.146-.365-.182-.658-.146-.95.036-.401 2.045-1.059 2.41-1.241h.073-.074c-.364 0-2.482.11-2.7-.293-.184-.219-.221-.511-.221-.876s.037-.693.22-.913c.219-.328 2.337-.219 2.701-.219h.074l-.074-.036C2.703 7.45.694 6.756.658 6.317c-.036-.255 0-.584.146-.912.366-.803.84-.95 1.241-.95.147 0 1.753.95 1.826 1.023l.147.036-.11-.11c-.22-.218-1.79-1.642-1.68-2.044.036-.256.22-.511.475-.804.364-.328.73-.474 1.06-.474.218 0 1.533 1.46 1.752 1.716l.145.11-.072-.146c-.147-.293-1.059-2.191-.803-2.556.182-.22.4-.365.73-.512.292-.109.548-.146.73-.146.511 0 1.315 2.009 1.46 2.41l.037.074v-.074c0-.402-.109-2.52.255-2.738.22-.146.511-.22.914-.22.327 0 .656.074.875.22.366.219.256 2.336.256 2.738v.073-.073c.22-.402.986-2.41 1.461-2.41.22 0 .475.037.73.146.365.146.585.292.767.511.22.365-.695 2.264-.84 2.556v.147l.037-.11c.219-.256 1.57-1.716 1.79-1.716.4 0 .73.146 1.095.474.256.293.401.548.475.803.145.402-1.534 1.826-1.753 2.045l-.037.11.11-.036c.072-.074 1.68-1.023 1.899-1.023.329 0 .877.146 1.167.95.147.328.22.657.147.912-.037.439-2.008 1.133-2.374 1.278l-.072.037h.072c.403 0 2.52-.11 2.703.219.145.22.219.548.219.913zm-3.104 0c0-3.14-2.52-5.696-5.623-5.696-3.141 0-5.734 2.556-5.734 5.696 0 3.104 2.593 5.66 5.734 5.66 3.104 0 5.623-2.556 5.623-5.66zm-1.315 0c0-2.447-1.9-4.382-4.308-4.382-2.447 0-4.419 1.935-4.419 4.382 0 2.41 1.972 4.346 4.419 4.346 2.409 0 4.308-1.936 4.308-4.346z" fill="#FFF"/></svg>