<svg width="68" height="57" viewBox="0 0 68 57" xmlns="http://www.w3.org/2000/svg" xmlns:xlink="http://www.w3.org/1999/xlink"><title>Group 35</title><defs><path id="a" d="M0 0h68v15H0z"/><path id="b" d="M6 13h57v32H6z"/></defs><g fill="none" fill-rule="evenodd"><g transform="translate(0 12)"><use fill="#F4F8F9" xlink:href="#a"/><path stroke="#5B95AA" stroke-width="2" d="M1 1h66v13H1z"/></g><g transform="translate(0 12)"><use fill="#F4F8F9" xlink:href="#b"/><path stroke="#5B95AA" stroke-width="2" d="M7 14h55v30H7z"/></g><path d="M34 12.135v43.731" stroke="#5B95AA" stroke-width="2" stroke-linecap="square"/><path d="M17.746 13.255c-2.6-1.91-3.784-4.09-3.55-6.542.851-4.479 3.446-6.324 7.782-5.536 6.506 1.181 8.94 4.31 12.27 12.078H17.746zm33.464 0c2.6-1.91 3.784-4.09 3.551-6.542-.852-4.479-3.446-6.324-7.783-5.536-6.505 1.181-8.94 4.31-12.27 12.078H51.21z" stroke="#5B95AA" stroke-width="2"/></g></svg>