<svg width="66" height="63" viewBox="0 0 66 63" xmlns="http://www.w3.org/2000/svg" xmlns:xlink="http://www.w3.org/1999/xlink"><title>Group 28</title><defs><path id="a" d="M32.313 0H33l33 53H0z"/></defs><g fill="none" fill-rule="evenodd"><use fill="#F4F8F9" xlink:href="#a"/><path stroke="#5B95AA" stroke-width="2" d="M32.662 1.348L1.78 52h62.418L32.662 1.348zM32.312 0l.854.52-.504.828-.51-.82L33 0v1h-.688V0z"/><path fill="#F4F8F9" d="M18 45h15v13H18zm24-15.275l12.858-7.726 6.695 11.144-12.857 7.725zm-12.447-10l-12.858-7.726L10 23.143l12.857 7.725z"/><path fill="#5B95AA" d="M52 19v12H39zM39.268 62.14L30 53.07 39.268 44zM6 26.667L18.82 24l2.725 12.546z"/></g></svg>