<svg width="30" height="24" viewBox="0 0 30 24" xmlns="http://www.w3.org/2000/svg"><title>Shape</title><path d="M26.137 4.276c1.247-.742 2.194-1.879 2.637-3.268a12.171 12.171 0 0 1-3.805 1.436C23.894 1.293 22.332.582 20.595.582c-3.284 0-5.97 2.636-5.97 5.872 0 .474.08.916.175 1.342-4.974-.237-9.38-2.573-12.317-6.14-.505.883-.82 1.878-.82 2.951 0 2.053 1.074 3.852 2.652 4.894a5.788 5.788 0 0 1-2.7-.726v.079c0 .757.143 1.452.41 2.115.728 1.847 2.386 3.236 4.391 3.63a5.874 5.874 0 0 1-1.579.221c-.379 0-.758-.047-1.122-.126A6.024 6.024 0 0 0 9.29 18.8a12.083 12.083 0 0 1-7.406 2.51c-.49 0-.947-.033-1.436-.08a17.244 17.244 0 0 0 9.158 2.637c9.331 0 15.094-6.457 16.594-13.166.27-1.2.395-2.383.395-3.551v-.76a12.354 12.354 0 0 0 2.968-3.047c-1.058.459-2.21.774-3.426.932z" fill="#00A1F7" fill-rule="evenodd"/></svg>