<svg width="37" height="36" viewBox="0 0 37 36" xmlns="http://www.w3.org/2000/svg"><title>Group 21</title><g fill="#B9D6E2"><path d="M10.394 2.627c-.848 1.155-2.21 1.566-2.21 1.566s.013-1.459.862-2.612C9.895.427 11.255.016 11.255.016s-.015 1.459-.861 2.611zM9.15 6.112c-1.391.204-2.639-.491-2.639-.491s1.01-1.027 2.402-1.23c1.393-.204 2.639.492 2.639.492s-1.01 1.025-2.402 1.23zM6.365 9.11c-1.232.7-2.639.505-2.639.505s.591-1.328 1.822-2.028c1.23-.698 2.635-.503 2.635-.503s-.59 1.327-1.818 2.026zm-1.76 4.451c-.868 1.138-2.237 1.521-2.237 1.521s.04-1.458.909-2.595c.867-1.138 2.235-1.522 2.235-1.522s-.039 1.46-.907 2.596zm.153 4.699c-.363 1.399-1.474 2.307-1.474 2.307s-.522-1.359-.16-2.755c.363-1.397 1.474-2.305 1.474-2.305s.522 1.356.16 2.753zm1.585 3.872c.252 1.423-.375 2.732-.375 2.732s-1.034-.999-1.286-2.421c-.252-1.424.377-2.733.377-2.733s1.034.998 1.284 2.422zm2.597 2.502c.625 1.297.372 2.733.372 2.733s-1.262-.664-1.887-1.962c-.622-1.296-.371-2.732-.371-2.732s1.264.664 1.887 1.961zm3.656 1.866c1.005 1.013 1.226 2.453 1.226 2.453s-1.404-.198-2.408-1.211c-1.003-1.011-1.228-2.453-1.228-2.453s1.406.2 2.41 1.211zM3.498 9.78c.027 1.445-.795 2.634-.795 2.634s-.867-1.156-.895-2.602c-.027-1.446.797-2.635.797-2.635s.866 1.155.893 2.603zM2.05 15.7c.727 1.236.594 2.688.594 2.688s-1.313-.553-2.04-1.789C-.125 15.36.01 13.907.01 13.907s1.312.554 2.04 1.792zm.944 5.098c1.14.846 1.571 2.236 1.571 2.236s-1.42.02-2.559-.826C.866 21.362.436 19.97.436 19.97s1.417-.02 2.558.827zm2.986 4.511c1.358.375 2.24 1.516 2.24 1.516s-1.32.537-2.675.165c-1.36-.373-2.242-1.517-2.242-1.517s1.319-.536 2.677-.164zm2.999 2.403c1.402-.092 2.592.702 2.592.702s-1.082.942-2.486 1.034c-1.401.092-2.594-.7-2.594-.7s1.085-.944 2.488-1.036zm3.923 1.783c1.34-.437 2.68.037 2.68.037s-.829 1.182-2.168 1.62c-1.34.439-2.682-.034-2.682-.034s.83-1.184 2.17-1.623zM6.268 5.523C5.828 6.898 4.669 7.74 4.669 7.74s-.445-1.385-.008-2.758c.44-1.375 1.599-2.217 1.599-2.217s.447 1.386.008 2.76zM16.877 28.08c-1.15-.835-2.567-.802-2.567-.802s.44 1.386 1.59 2.222c1.147.834 2.566.802 2.566.802s-.441-1.386-1.59-2.221zm9.662-25.453c.848 1.155 2.21 1.566 2.21 1.566s-.013-1.459-.862-2.612c-.85-1.154-2.21-1.565-2.21-1.565s.016 1.459.862 2.611zm1.243 3.485c1.392.204 2.639-.491 2.639-.491s-1.01-1.027-2.4-1.23c-1.394-.204-2.641.492-2.641.492s1.01 1.025 2.402 1.23zm2.785 2.998c1.232.7 2.639.505 2.639.505s-.591-1.328-1.822-2.028c-1.23-.698-2.635-.503-2.635-.503s.59 1.327 1.818 2.026zm1.76 4.451c.869 1.138 2.237 1.521 2.237 1.521s-.039-1.458-.909-2.595c-.867-1.138-2.235-1.522-2.235-1.522s.039 1.46.907 2.596zm-.152 4.699c.363 1.399 1.474 2.307 1.474 2.307s.52-1.359.159-2.755c-.362-1.397-1.473-2.305-1.473-2.305s-.523 1.356-.16 2.753zm-1.587 3.872c-.25 1.423.377 2.732.377 2.732s1.034-.999 1.286-2.421c.251-1.424-.377-2.733-.377-2.733s-1.034.998-1.286 2.422zm-2.596 2.502c-.624 1.297-.372 2.733-.372 2.733s1.263-.664 1.887-1.962c.622-1.296.372-2.732.372-2.732s-1.265.664-1.887 1.961zM24.336 26.5c-1.004 1.013-1.225 2.453-1.225 2.453s1.404-.198 2.408-1.211c1.002-1.011 1.228-2.453 1.228-2.453s-1.407.2-2.41 1.211zm9.097-16.72c-.026 1.445.796 2.634.796 2.634s.868-1.156.895-2.602c.027-1.446-.797-2.635-.797-2.635s-.865 1.155-.894 2.603zm1.45 5.92c-.728 1.236-.595 2.688-.595 2.688s1.313-.553 2.041-1.789c.728-1.24.594-2.692.594-2.692s-1.313.554-2.04 1.792zm-.945 5.098c-1.14.846-1.57 2.236-1.57 2.236s1.419.02 2.559-.826c1.14-.846 1.57-2.237 1.57-2.237s-1.418-.02-2.56.827zm-2.986 4.511c-1.359.375-2.24 1.516-2.24 1.516s1.32.537 2.676.165c1.36-.373 2.241-1.517 2.241-1.517s-1.319-.536-2.677-.164zm-2.998 2.403c-1.403-.092-2.592.702-2.592.702s1.082.942 2.485 1.034c1.402.092 2.595-.7 2.595-.7s-1.085-.944-2.488-1.036zm-3.924 1.783c-1.34-.437-2.681.037-2.681.037s.83 1.182 2.17 1.62c1.338.439 2.681-.034 2.681-.034s-.83-1.184-2.17-1.623zm6.635-23.972c.439 1.375 1.598 2.216 1.598 2.216s.446-1.385.007-2.758c-.44-1.375-1.597-2.217-1.597-2.217s-.447 1.386-.008 2.76zM20.056 28.08c1.148-.835 2.566-.802 2.566-.802s-.44 1.386-1.59 2.222c-1.147.834-2.566.802-2.566.802s.442-1.386 1.59-2.221zm-6.416 7.904a.212.212 0 0 1-.111-.032.228.228 0 0 1-.075-.308c.04-.066.989-1.667 3.045-3.13 2.034-1.45 3.433-2.063 3.492-2.088a.216.216 0 0 1 .284.119.226.226 0 0 1-.116.293c-.014.006-1.419.622-3.413 2.043-1.973 1.405-2.91 2.98-2.92 2.995a.216.216 0 0 1-.185.108z"/><path d="M23.291 35.984a.218.218 0 0 1-.186-.108c-.008-.016-.946-1.59-2.919-2.995-1.994-1.42-3.399-2.037-3.413-2.043a.226.226 0 0 1-.116-.293.216.216 0 0 1 .285-.119c.059.025 1.457.638 3.492 2.087 2.056 1.464 3.005 3.065 3.045 3.131a.229.229 0 0 1-.075.308.216.216 0 0 1-.113.032z"/></g></svg>