<svg width="30" height="23" viewBox="0 0 30 23" xmlns="http://www.w3.org/2000/svg"><title>Shape</title><path d="M29.707 4.777s-.308-2.162-1.203-3.105C27.367.437 26.082.42 25.513.338 21.318.03 15.025.03 15.025.03h-.033S8.716.03 4.52.338c-.6.082-1.87.099-3.007 1.334C.618 2.615.31 4.777.31 4.777S0 7.313 0 9.816v2.389c0 2.536.31 5.04.31 5.04s.308 2.162 1.203 3.121C2.65 21.618 4.147 21.57 4.83 21.7c2.39.244 10.195.325 10.195.325s6.293-.032 10.488-.325c.569-.081 1.854-.081 2.991-1.333.895-.959 1.203-3.12 1.203-3.12S30 14.74 30 12.205v-2.39c0-2.503-.293-5.04-.293-5.04zm-9.69 5.917l-8.115 4.372V6.288l3.676 2 4.439 2.406z" fill="#D21916" fill-rule="evenodd"/></svg>