<?xml version="1.0" encoding="UTF-8" standalone="no"?>
<svg width="14px" height="30px" viewBox="0 0 14 30" version="1.1" xmlns="http://www.w3.org/2000/svg" xmlns:xlink="http://www.w3.org/1999/xlink">
    <!-- Generator: Sketch 47.1 (45422) - http://www.bohemiancoding.com/sketch -->
    <title>Shape</title>
    <desc>Created with Sketch.</desc>
    <defs></defs>
    <g id="Page-1" stroke="none" stroke-width="1" fill="none" fill-rule="evenodd">
        <g id="Desktop-HD-Copy-22" transform="translate(-373.000000, -2979.000000)" fill="#4F70BB">
            <g id="Group-20" transform="translate(177.000000, 2979.000000)">
                <g id="Group-19">
                    <path d="M205.044859,9.16476664 L205.044859,6.82770992 C205.044859,5.70652873 205.787263,5.43815379 206.325015,5.43815379 C206.845834,5.43815379 209.593419,5.43815379 209.593419,5.43815379 L209.593419,0.447761194 L205.092652,0.447761194 C200.086885,0.447761194 198.965927,4.14284639 198.965927,6.54340404 L198.965927,9.16465523 L196.059701,9.16465523 L196.059701,12.6861712 L196.059701,14.9921459 L198.996898,14.9921459 C198.996898,21.6088306 198.996898,29.5522388 198.996898,29.5522388 L204.824388,29.5522388 C204.824388,29.5522388 204.824388,21.4982053 204.824388,14.9921459 L209.134987,14.9921459 L209.325155,12.702325 L209.672739,9.16476664 L205.044859,9.16476664 Z" id="Shape"></path>
                </g>
            </g>
        </g>
    </g>
</svg>