<?xml version="1.0" encoding="UTF-8" standalone="no"?>
<svg width="18px" height="26px" viewBox="0 0 18 26" version="1.1" xmlns="http://www.w3.org/2000/svg" xmlns:xlink="http://www.w3.org/1999/xlink">
    <!-- Generator: Sketch 47.1 (45422) - http://www.bohemiancoding.com/sketch -->
    <title>Shape</title>
    <desc>Created with Sketch.</desc>
    <defs></defs>
    <g id="Page-1" stroke="none" stroke-width="1" fill="none" fill-rule="evenodd">
        <g id="Desktop-HD-Copy-22" transform="translate(-39.000000, -419.000000)" fill-rule="nonzero" fill="#FFFFFF">
            <path d="M53.5707743,435.469275 L57.00222,442.00483 L53.3502965,442.298627 L51.0498395,445 L48.0195698,440.216308 L44.9890401,444.99974 L42.5432446,442.261707 L39,442.00483 L42.4330057,435.469275 C42.4696653,435.432356 42.4696653,435.432356 42.4696653,435.432356 C42.5065849,435.687933 42.6152638,435.870971 42.7621624,436.089629 C43.0177398,436.454665 43.4186558,436.673583 43.8934111,436.929161 C44.295887,437.075279 44.6601434,437.148859 44.9893001,437.148859 C45.3551164,437.148859 45.7193728,437.075539 45.9382906,436.929161 C46.1218488,437.075279 46.304107,437.258317 46.5230248,437.367776 C46.8888411,437.587474 47.3630764,437.732813 47.9111509,437.732813 C48.4223058,437.732813 48.8601414,437.587214 49.2626174,437.367776 C49.4815352,437.258317 49.6268737,437.075539 49.7722123,436.929161 C50.101369,437.075279 50.4302657,437.148859 50.796082,437.148859 C51.1236788,437.148859 51.4525755,437.075539 51.8534915,436.929161 C52.401306,436.673583 52.7304627,436.454665 52.9860401,436.089629 C53.1326787,435.870711 53.2782772,435.687933 53.3515965,435.432356 C53.3885161,435.469275 53.4236158,435.469275 53.497195,435.469275 C53.5338547,435.469275 53.5338547,435.469275 53.5707743,435.469275 Z M56.6379636,427.763992 C56.6379636,428.129029 56.5643844,428.421266 56.4190458,428.640184 C56.2354876,429.04188 54.1183288,428.932681 53.7161128,428.932681 L53.6443536,428.932681 L53.7161128,428.932681 C54.0819292,429.115459 56.0532295,429.772732 56.0901491,430.174688 C56.1634684,430.466405 56.0901491,430.758642 55.9432506,431.123679 C55.6525735,431.927071 55.104499,432.109849 54.7756022,432.109849 C54.5566844,432.109849 52.9496405,431.160338 52.8760612,431.087539 L52.7673823,431.050879 L52.804042,431.087539 C53.0232198,431.306457 54.702023,432.766602 54.5566844,433.132419 C54.4831052,433.424136 54.3377666,433.680233 54.0821892,433.935811 C53.7163728,434.300847 53.3872161,434.482845 52.9863001,434.482845 C52.7673823,434.482845 51.4159158,432.912461 51.196998,432.693803 L51.1603384,432.657143 L51.1603384,432.766602 C51.3056769,433.058839 52.2193078,434.99426 52.00039,435.286497 C51.8181318,435.505415 51.597914,435.725113 51.2336577,435.834312 C50.9780802,435.943771 50.7222428,436.01631 50.503325,436.01631 C50.0275297,436.01631 49.2623574,433.97169 49.0418796,433.606394 L49.0418796,433.533595 L49.0418796,433.606394 C49.0418796,433.97143 49.1521185,436.089629 48.7863021,436.271887 C48.5673843,436.454665 48.2384876,436.527465 47.9108909,436.527465 C47.5084149,436.527465 47.2161778,436.454665 46.99726,436.271887 C46.6330037,436.089629 46.7416826,433.97143 46.7416826,433.606394 L46.7416826,433.533595 L46.7050229,433.606394 C46.5594244,433.97143 45.7560324,436.01631 45.2448776,436.01631 C45.0626194,436.01631 44.8070419,435.943771 44.5148049,435.834312 C44.1856481,435.724853 43.9669903,435.505155 43.7847322,435.286497 C43.5291547,434.99426 44.4414856,433.058839 44.5883841,432.766602 L44.6604034,432.657143 L44.5148049,432.693803 C44.295887,432.912721 42.9813402,434.482845 42.7624224,434.482845 C42.4332657,434.482845 42.0677093,434.300847 41.703193,433.935811 C41.4476155,433.680233 41.2640574,433.423876 41.2273977,433.132419 C41.1187188,432.766602 42.6888431,431.306457 42.9077609,431.087539 L43.0177398,431.050879 L42.8708413,431.087539 C42.797522,431.160338 41.1917781,432.109849 41.0451395,432.109849 C40.6442236,432.109849 40.1694683,431.927071 39.803912,431.123679 C39.6583134,430.758642 39.6216538,430.466405 39.6583134,430.174688 C39.6936731,429.772992 41.703193,429.115459 42.0674493,428.932681 L42.1410286,428.932681 L42.0674493,428.932681 C41.703193,428.932681 39.5849942,429.04214 39.3660763,428.640184 C39.1825182,428.421266 39.1458585,428.129029 39.1458585,427.763992 C39.1458585,427.398956 39.1825182,427.070579 39.3660763,426.851141 C39.5849942,426.522765 41.703193,426.632224 42.0674493,426.632224 L42.1410286,426.632224 L42.0674493,426.595564 C41.703193,426.449966 39.6936731,425.756032 39.6583134,425.317417 C39.6216538,425.061839 39.6583134,424.733463 39.803912,424.404566 C40.1697283,423.601694 40.6442236,423.455575 41.0451395,423.455575 C41.1920381,423.455575 42.797522,424.404566 42.8708413,424.477885 L43.0177398,424.514025 L42.9077609,424.404566 C42.6888431,424.185648 41.1184588,422.761642 41.2273977,422.359686 C41.2640574,422.104109 41.4476155,421.848532 41.703193,421.556294 C42.0674493,421.227918 42.4332657,421.081799 42.7624224,421.081799 C42.9813402,421.081799 44.295887,422.542725 44.5148049,422.798302 L44.6604034,422.907761 L44.5883841,422.761642 C44.4414856,422.469145 43.5291547,420.570644 43.7847322,420.205608 C43.9669903,419.98669 44.1856481,419.840572 44.5148049,419.694453 C44.8073019,419.584994 45.0626194,419.548335 45.2448776,419.548335 C45.7560324,419.548335 46.5596844,421.556554 46.7050229,421.95825 L46.7416826,422.03157 L46.7416826,421.95799 C46.7416826,421.556294 46.6330037,419.438616 46.99726,419.219698 C47.2161778,419.073579 47.5084149,419 47.9108909,419 C48.2384876,419 48.5673843,419.073579 48.7863021,419.219698 C49.1521185,419.438616 49.0418796,421.556034 49.0418796,421.95799 L49.0418796,422.03131 L49.0418796,421.95799 C49.2623574,421.556294 50.0275297,419.548075 50.503325,419.548075 C50.7222428,419.548075 50.9778202,419.584994 51.2336577,419.694193 C51.597914,419.840312 51.8181318,419.98643 52.00039,420.205348 C52.2193078,420.570384 51.3054169,422.469145 51.1603384,422.761382 L51.1603384,422.907501 L51.196998,422.798042 C51.4159158,422.542465 52.7673823,421.081539 52.9863001,421.081539 C53.3872161,421.081539 53.7163728,421.227658 54.0821892,421.556034 C54.3377666,421.848532 54.4831052,422.103849 54.5566844,422.359426 C54.702023,422.761122 53.0232198,424.185388 52.804042,424.404306 L52.7673823,424.513765 L52.8760612,424.477625 C52.9493805,424.404306 54.5566844,423.455315 54.7756022,423.455315 C55.104759,423.455315 55.6525735,423.601434 55.9432506,424.404306 C56.0901491,424.733463 56.1637284,425.061579 56.0901491,425.317157 C56.0532295,425.755772 54.0819292,426.449706 53.7161128,426.595304 L53.6443536,426.631964 L53.7161128,426.631964 C54.1185888,426.631964 56.2354876,426.522505 56.4190458,426.850881 C56.5643844,427.070579 56.6379636,427.398956 56.6379636,427.763992 Z M53.5338547,427.763992 C53.5338547,424.624004 51.0147399,422.067969 47.9106309,422.067969 C44.7698623,422.067969 42.1774282,424.624004 42.1774282,427.763992 C42.1774282,430.867841 44.7701223,433.423876 47.9106309,433.423876 C51.0147399,433.423876 53.5338547,430.867841 53.5338547,427.763992 Z M52.2193078,427.763992 C52.2193078,425.317417 50.3197668,423.381996 47.9108909,423.381996 C45.4635354,423.381996 43.4922351,425.317157 43.4922351,427.763992 C43.4922351,430.174428 45.4635354,432.109849 47.9108909,432.109849 C50.3197668,432.109849 52.2193078,430.174428 52.2193078,427.763992 Z" id="Shape"></path>
        </g>
    </g>
</svg>