<?xml version="1.0" encoding="UTF-8" standalone="no"?>
<svg width="68px" height="57px" viewBox="0 0 68 57" version="1.1" xmlns="http://www.w3.org/2000/svg" xmlns:xlink="http://www.w3.org/1999/xlink">
    <!-- Generator: Sketch 47.1 (45422) - http://www.bohemiancoding.com/sketch -->
    <title>Group 35</title>
    <desc>Created with Sketch.</desc>
    <defs>
        <rect id="path-1" x="0" y="0" width="68" height="15"></rect>
        <rect id="path-2" x="6" y="13" width="57" height="32"></rect>
    </defs>
    <g id="Page-1" stroke="none" stroke-width="1" fill="none" fill-rule="evenodd">
        <g id="Desktop-HD-Copy-22" transform="translate(-1134.000000, -885.000000)">
            <g id="Group-57" transform="translate(278.000000, 706.000000)">
                <g id="Group-56" transform="translate(0.000000, 148.000000)">
                    <g id="Group-37" transform="translate(800.000000, 0.000000)">
                        <g id="Group-36" transform="translate(30.000000, 0.000000)">
                            <g id="Group-35" transform="translate(26.000000, 32.000000)">
                                <g id="Group-29" transform="translate(0.000000, 11.000000)">
                                    <g id="Rectangle-14">
                                        <use fill="#F4F8F9" fill-rule="evenodd" xlink:href="#path-1"></use>
                                        <rect stroke="#5B95AA" stroke-width="2" x="1" y="1" width="66" height="13"></rect>
                                    </g>
                                    <g id="Rectangle-15">
                                        <use fill="#F4F8F9" fill-rule="evenodd" xlink:href="#path-2"></use>
                                        <rect stroke="#5B95AA" stroke-width="2" x="7" y="14" width="55" height="30"></rect>
                                    </g>
                                    <path d="M34,0.134502924 L34,43.8662883" id="Line-10" stroke="#5B95AA" stroke-width="2" stroke-linecap="square"></path>
                                </g>
                                <g id="Group-34" transform="translate(14.000000, 0.000000)" stroke="#5B95AA" stroke-width="2">
                                    <path d="M3.74626226,12.255282 C1.14563459,10.3454211 -0.0379480348,8.16459641 0.195514394,5.71280785 C1.04725496,1.2343728 3.64154471,-0.610981322 7.97838365,0.17674547 C14.4836421,1.35833566 16.9185379,4.48709078 20.2482154,12.255282 L3.74626226,12.255282 Z" id="Path-3"></path>
                                    <path d="M37.2102865,12.255282 C39.8109141,10.3454211 40.9944968,8.16459641 40.7610343,5.71280785 C39.9092938,1.2343728 37.315004,-0.610981322 32.9781651,0.17674547 C26.4729067,1.35833566 24.0380108,4.48709078 20.7083333,12.255282 L37.2102865,12.255282 Z" id="Path-3"></path>
                                </g>
                            </g>
                        </g>
                    </g>
                </g>
            </g>
        </g>
    </g>
</svg>