<?xml version="1.0" encoding="UTF-8" standalone="no"?>
<svg width="31px" height="26px" viewBox="0 0 31 26" version="1.1" xmlns="http://www.w3.org/2000/svg" xmlns:xlink="http://www.w3.org/1999/xlink">
    <!-- Generator: Sketch 47.1 (45422) - http://www.bohemiancoding.com/sketch -->
    <title>Shape</title>
    <desc>Created with Sketch.</desc>
    <defs></defs>
    <g id="Page-1" stroke="none" stroke-width="1" fill="none" fill-rule="evenodd">
        <g id="Desktop-HD-Copy-22" transform="translate(-33.000000, -259.000000)" fill-rule="nonzero" fill="#FFFFFF">
            <path d="M56.9098822,259 L39.8894009,259 L39.8894009,261.469534 L33,261.469534 L36.827445,270.741935 L39.9559652,270.741935 C40.4459626,274.580147 43.5462448,277.557083 47.4011777,277.890937 L47.4011777,283.003072 L44.1927803,283.003072 L44.1927803,285 L52.6065028,285 L52.6065028,283.003072 L49.3981055,283.003072 L49.3981055,277.890937 C53.2506611,277.555898 56.3488335,274.581043 56.8399898,270.745264 L59.96851,270.745264 L63.7959549,261.472862 L56.9098822,261.472862 L56.9098822,259 Z M39.8894009,268.748336 L38.1653866,268.748336 L35.9854071,263.46979 L39.8894009,263.46979 L39.8894009,268.748336 Z M60.8138761,263.46979 L58.6372248,268.748336 L56.9098822,268.748336 L56.9098822,263.46979 L60.8138761,263.46979 Z" id="Shape"></path>
        </g>
    </g>
</svg>