<?xml version="1.0" encoding="UTF-8" standalone="no"?>
<svg width="30px" height="24px" viewBox="0 0 30 24" version="1.1" xmlns="http://www.w3.org/2000/svg" xmlns:xlink="http://www.w3.org/1999/xlink">
    <!-- Generator: Sketch 47.1 (45422) - http://www.bohemiancoding.com/sketch -->
    <title>Shape</title>
    <desc>Created with Sketch.</desc>
    <defs></defs>
    <g id="Page-1" stroke="none" stroke-width="1" fill="none" fill-rule="evenodd">
        <g id="Desktop-HD-Copy-22" transform="translate(-410.000000, -2982.000000)" fill="#00A1F7">
            <g id="Group-20" transform="translate(177.000000, 2979.000000)">
                <g id="Group-19">
                    <path d="M259.137186,7.27562242 C260.383884,6.53408649 261.330938,5.39722069 261.774166,4.0081636 C260.62126,4.6867631 259.326663,5.17621914 257.96913,5.44445086 C256.893864,4.29276992 255.33215,3.58208955 253.594881,3.58208955 C250.310602,3.58208955 247.625723,6.21840183 247.625723,9.45400257 C247.625723,9.92764096 247.705703,10.3698668 247.800052,10.7962751 C242.826403,10.5593445 238.42063,8.22289921 235.483337,4.65535058 C234.978397,5.53946815 234.662936,6.53408649 234.662936,7.60734752 C234.662936,9.65952064 235.736531,11.4589455 237.315177,12.5010168 C236.336599,12.4853105 235.4204,12.2165219 234.615705,11.7746302 C234.615705,11.8063769 234.615705,11.8221945 234.615705,11.853607 C234.615705,12.6111834 234.757953,13.3061575 235.025739,13.9687166 C235.752905,15.8161514 237.410751,17.2048743 239.416251,17.5996472 C238.894269,17.7417833 238.389329,17.8202032 237.837048,17.8202032 C237.458093,17.8202032 237.078915,17.772973 236.715109,17.6942189 C237.489505,20.0306642 239.683926,21.7349604 242.290051,21.7985652 C240.236764,23.3769885 237.678983,24.3083362 234.884048,24.3083362 C234.394258,24.3083362 233.936994,24.2763668 233.447761,24.2293594 C236.100003,25.8870937 239.241923,26.8656716 242.605513,26.8656716 C251.937036,26.8656716 257.700453,20.4089511 259.199788,13.7001507 C259.469134,12.5009054 259.594561,11.3168094 259.594561,10.1488653 C259.594561,9.89611705 259.594561,9.62821951 259.594561,9.39095475 C260.747356,8.55440152 261.774166,7.51233023 262.563155,6.34427468 C261.504821,6.80254099 260.353028,7.11822566 259.137186,7.27562242 Z" id="Shape"></path>
                </g>
            </g>
        </g>
    </g>
</svg>