<?xml version="1.0" encoding="UTF-8" standalone="no"?>
<svg width="24px" height="26px" viewBox="0 0 24 26" version="1.1" xmlns="http://www.w3.org/2000/svg" xmlns:xlink="http://www.w3.org/1999/xlink">
    <!-- Generator: Sketch 47.1 (45422) - http://www.bohemiancoding.com/sketch -->
    <title>Shape</title>
    <desc>Created with Sketch.</desc>
    <defs></defs>
    <g id="Page-1" stroke="none" stroke-width="1" fill="none" fill-rule="evenodd">
        <g id="Desktop-HD-Copy-22" transform="translate(-36.000000, -169.000000)" fill-rule="nonzero" fill="#FFFFFF">
            <path d="M59.3403807,188.11 L58.6403807,194.306667 C58.593714,194.696667 58.2203807,195 57.8003807,195 L37.5470474,195 C37.1270474,195 36.753714,194.696667 36.7070474,194.306667 L36.0070474,188.11 C35.9603807,187.763333 36.1470474,187.46 36.5203807,187.33 L45.433714,183.733333 L45.433714,182.346667 C43.2403807,180.96 41.7003807,177.753333 41.7003807,174.59 C41.7003807,171.47 44.3603807,169 47.673714,169 C50.9870474,169 53.6470474,171.47 53.6470474,174.546667 C53.6470474,177.71 52.1070474,180.96 49.913714,182.303333 L49.913714,183.69 L58.8270474,187.286667 C59.153714,187.46 59.3403807,187.763333 59.3403807,188.11 Z" id="Shape"></path>
        </g>
    </g>
</svg>