<?xml version="1.0" encoding="UTF-8" standalone="no"?>
<svg width="37px" height="36px" viewBox="0 0 37 36" version="1.1" xmlns="http://www.w3.org/2000/svg" xmlns:xlink="http://www.w3.org/1999/xlink">
    <!-- Generator: Sketch 47.1 (45422) - http://www.bohemiancoding.com/sketch -->
    <title>Group 21</title>
    <desc>Created with Sketch.</desc>
    <defs></defs>
    <g id="Page-1" stroke="none" stroke-width="1" fill="none" fill-rule="evenodd">
        <g id="Desktop-HD-Copy-22" transform="translate(-352.000000, -2762.000000)" fill-rule="nonzero" fill="#B9D6E2">
            <g id="Group-46" transform="translate(0.000000, 2419.000000)">
                <g id="Group-45" transform="translate(280.000000, 153.000000)">
                    <g id="Group-40">
                        <g id="Group-22" transform="translate(0.000000, 190.000000)">
                            <g id="Group-21" transform="translate(72.000000, 0.000000)">
                                <g id="noun_1202909_cc">
                                    <g id="Group">
                                        <path d="M10.3936425,2.62711698 C9.5458657,3.78230943 8.18331216,4.19325283 8.18331216,4.19325283 C8.18331216,4.19325283 8.19694374,2.73443774 9.04566062,1.58080755 C9.8947804,0.427177358 11.2547151,0.015554717 11.2547151,0.015554717 C11.2547151,0.015554717 11.2398076,1.47491321 10.3936425,2.62711698 Z" id="Shape"></path>
                                        <path d="M9.1500127,6.11246038 C7.75858439,6.31569057 6.51105989,5.62055094 6.51105989,5.62055094 C6.51105989,5.62055094 7.52087114,4.59380377 8.91276951,4.39036981 C10.3055408,4.18713962 11.5519238,4.88336604 11.5519238,4.88336604 C11.5519238,4.88336604 10.5419111,5.90841509 9.1500127,6.11246038 Z" id="Shape"></path>
                                        <path d="M6.36494011,9.11003774 C5.13326316,9.80993208 3.7259873,9.61471698 3.7259873,9.61471698 C3.7259873,9.61471698 4.31738294,8.2869283 5.54778403,7.58703396 C6.77737931,6.88890566 8.18331216,7.08412075 8.18331216,7.08412075 C8.18331216,7.08412075 7.59366243,8.41123019 6.36494011,9.11003774 Z" id="Shape"></path>
                                        <path d="M4.60539201,13.5614038 C3.73666425,14.6986642 2.36779855,15.082234 2.36779855,15.082234 C2.36779855,15.082234 2.40721597,13.6243019 3.27654809,12.4869736 C4.1444029,11.3485585 5.51246279,10.9652604 5.51246279,10.9652604 C5.51246279,10.9652604 5.47304537,12.4245509 4.60539201,13.5614038 Z" id="Shape"></path>
                                        <path d="M4.75789111,18.2601509 C4.39487477,19.6589887 3.28420327,20.5670717 3.28420327,20.5670717 C3.28420327,20.5670717 2.76190563,19.2081736 3.12398185,17.8123245 C3.48699819,16.4147094 4.59766969,15.5066943 4.59766969,15.5066943 C4.59766969,15.5066943 5.11963158,16.8629434 4.75789111,18.2601509 Z" id="Shape"></path>
                                        <path d="M6.34325045,22.1322566 C6.59506534,23.5548 5.9678784,24.8641132 5.9678784,24.8641132 C5.9678784,24.8641132 4.93369147,23.8651472 4.68207804,22.4426038 C4.42986025,21.0191094 5.0586588,19.7098642 5.0586588,19.7098642 C5.0586588,19.7098642 6.09311434,20.7079472 6.34325045,22.1322566 Z" id="Shape"></path>
                                        <path d="M8.94083848,24.6344604 C9.56460073,25.9311396 9.31238294,27.3670642 9.31238294,27.3670642 C9.31238294,27.3670642 8.04954809,26.7025585 7.42518149,25.4053358 C6.80336661,24.1090642 7.05363702,22.6730717 7.05363702,22.6730717 C7.05363702,22.6730717 8.31835209,23.3368302 8.94083848,24.6344604 Z" id="Shape"></path>
                                        <path d="M12.5963176,26.5000075 C13.6008911,27.5127623 13.8216152,28.952966 13.8216152,28.952966 C13.8216152,28.952966 12.4177641,28.7547623 11.4135935,27.7420075 C10.4106316,26.7305434 10.1857441,25.2894566 10.1857441,25.2894566 C10.1857441,25.2894566 11.5917441,25.4889509 12.5963176,26.5000075 Z" id="Shape"></path>
                                        <path d="M3.49827949,9.77990943 C3.5253412,11.2248679 2.70261162,12.413683 2.70261162,12.413683 C2.70261162,12.413683 1.83562976,11.2578113 1.80816515,9.81224151 C1.78110345,8.3661283 2.60463884,7.17670189 2.60463884,7.17670189 C2.60463884,7.17670189 3.47101633,8.33209811 3.49827949,9.77990943 Z" id="Shape"></path>
                                        <path d="M2.04950454,15.6991245 C2.77674592,16.936166 2.64405626,18.3878491 2.64405626,18.3878491 C2.64405626,18.3878491 1.33119419,17.8353509 0.603079855,16.5991245 C-0.123758621,15.3597057 0.00960254083,13.9065283 0.00960254083,13.9065283 C0.00960254083,13.9065283 1.32226316,14.4612 2.04950454,15.6991245 Z" id="Shape"></path>
                                        <path d="M2.99404537,20.7984226 C4.13480036,21.6440151 4.56530309,23.0342264 4.56530309,23.0342264 C4.56530309,23.0342264 3.14547005,23.0549434 2.00605808,22.2077208 C0.865571688,21.3621283 0.435203267,19.9713736 0.435203267,19.9713736 C0.435203267,19.9713736 1.85315608,19.9512679 2.99404537,20.7984226 Z" id="Shape"></path>
                                        <path d="M5.98023412,25.3088151 C7.33849002,25.6838264 8.22084936,26.825434 8.22084936,26.825434 C8.22084936,26.825434 6.90093648,27.3619019 5.54462795,26.9895396 C4.18489474,26.6169057 3.30300544,25.4734642 3.30300544,25.4734642 C3.30300544,25.4734642 4.62197822,24.9365208 5.98023412,25.3088151 Z" id="Shape"></path>
                                        <path d="M8.97877858,27.7122566 C10.3806824,27.6204226 11.5712632,28.413917 11.5712632,28.413917 C11.5712632,28.413917 10.4886606,29.3555547 9.08527949,29.4482038 C7.68357713,29.5400377 6.49084755,28.7470868 6.49084755,28.7470868 C6.49084755,28.7470868 7.57580036,27.8044981 8.97877858,27.7122566 Z" id="Shape"></path>
                                        <path d="M12.9017858,29.4951396 C14.2419782,29.0581132 15.5829093,29.5317509 15.5829093,29.5317509 C15.5829093,29.5317509 14.7529946,30.7139094 13.4138766,31.152634 C12.0748258,31.5908151 10.7319474,31.1181283 10.7319474,31.1181283 C10.7319474,31.1181283 11.5625336,29.9338642 12.9017858,29.4951396 Z" id="Shape"></path>
                                        <path d="M6.26784029,5.52314717 C5.82854083,6.89766792 4.66931942,7.73911698 4.66931942,7.73911698 C4.66931942,7.73911698 4.22364065,6.35359245 4.66139564,4.98104151 C5.10129946,3.60624906 6.25971506,2.76418868 6.25971506,2.76418868 C6.25971506,2.76418868 6.7070726,4.15032453 6.26784029,5.52314717 Z" id="Shape"></path>
                                        <path d="M16.8766334,28.0808151 C15.7278203,27.2451396 14.3098675,27.2783547 14.3098675,27.2783547 C14.3098675,27.2783547 14.7505771,28.6638792 15.8998603,29.4995547 C17.047196,30.3342792 18.4663575,30.3019472 18.4663575,30.3019472 C18.4663575,30.3019472 18.0246407,28.9159472 16.8766334,28.0808151 Z" id="Shape"></path>
                                        <path d="M26.5387368,2.62711698 C27.3870508,3.78230943 28.7490672,4.19325283 28.7490672,4.19325283 C28.7490672,4.19325283 28.7355027,2.73443774 27.8871887,1.58080755 C27.0376661,0.427177358 25.6773285,0.015554717 25.6773285,0.015554717 C25.6773285,0.015554717 25.6925717,1.47491321 26.5387368,2.62711698 Z" id="Shape"></path>
                                        <path d="M27.7819637,6.11246038 C29.174265,6.31569057 30.4205136,5.62055094 30.4205136,5.62055094 C30.4205136,5.62055094 29.4112396,4.59380377 28.020147,4.39036981 C26.6269728,4.18713962 25.3799855,4.88336604 25.3799855,4.88336604 C25.3799855,4.88336604 26.3904682,5.90841509 27.7819637,6.11246038 Z" id="Shape"></path>
                                        <path d="M30.5674392,9.11003774 C31.7991833,9.80993208 33.2055191,9.61471698 33.2055191,9.61471698 C33.2055191,9.61471698 32.6145935,8.2869283 31.3841924,7.58703396 C30.1545971,6.88890566 28.7490672,7.08412075 28.7490672,7.08412075 C28.7490672,7.08412075 29.338314,8.41123019 30.5674392,9.11003774 Z" id="Shape"></path>
                                        <path d="M32.3270544,13.5614038 C33.1957822,14.6986642 34.5641779,15.082234 34.5641779,15.082234 C34.5641779,15.082234 34.5249619,13.6243019 33.6550254,12.4869736 C32.7875735,11.3485585 31.4199837,10.9652604 31.4199837,10.9652604 C31.4199837,10.9652604 31.4587296,12.4245509 32.3270544,13.5614038 Z" id="Shape"></path>
                                        <path d="M32.1745554,18.2601509 C32.5375045,19.6589887 33.6491162,20.5670717 33.6491162,20.5670717 C33.6491162,20.5670717 34.169735,19.2081736 33.8079946,17.8123245 C33.4458512,16.4147094 32.3347768,15.5066943 32.3347768,15.5066943 C32.3347768,15.5066943 31.8119419,16.8629434 32.1745554,18.2601509 Z" id="Shape"></path>
                                        <path d="M30.5883902,22.1322566 C30.3378512,23.5548 30.9645681,24.8641132 30.9645681,24.8641132 C30.9645681,24.8641132 31.9986207,23.8651472 32.2508385,22.4426038 C32.5021833,21.0191094 31.8741906,19.7098642 31.8741906,19.7098642 C31.8741906,19.7098642 30.839735,20.7079472 30.5883902,22.1322566 Z" id="Shape"></path>
                                        <path d="M27.991608,24.6344604 C27.3678457,25.9311396 27.6196606,27.3670642 27.6196606,27.3670642 C27.6196606,27.3670642 28.8828984,26.7025585 29.5066606,25.4053358 C30.129147,24.1090642 29.878608,22.6730717 29.878608,22.6730717 C29.878608,22.6730717 28.6140272,23.3368302 27.991608,24.6344604 Z" id="Shape"></path>
                                        <path d="M24.3360617,26.5000075 C23.3318911,27.5127623 23.1107641,28.952966 23.1107641,28.952966 C23.1107641,28.952966 24.5150181,28.7547623 25.5187858,27.7420075 C26.5212777,26.7305434 26.7466352,25.2894566 26.7466352,25.2894566 C26.7466352,25.2894566 25.3398294,25.4889509 24.3360617,26.5000075 Z" id="Shape"></path>
                                        <path d="M33.4334955,9.77990943 C33.4070381,11.2248679 34.2293648,12.413683 34.2293648,12.413683 C34.2293648,12.413683 35.0968167,11.2578113 35.1240799,9.81224151 C35.150873,8.3661283 34.3269347,7.17670189 34.3269347,7.17670189 C34.3269347,7.17670189 33.4616316,8.33209811 33.4334955,9.77990943 Z" id="Shape"></path>
                                        <path d="M34.8829419,15.6991245 C34.1552305,16.936166 34.2881887,18.3878491 34.2881887,18.3878491 C34.2881887,18.3878491 35.6013194,17.8353509 36.3293666,16.5991245 C37.056608,15.3597057 36.923314,13.9065283 36.923314,13.9065283 C36.923314,13.9065283 35.6097804,14.4612 34.8829419,15.6991245 Z" id="Shape"></path>
                                        <path d="M33.937931,20.7984226 C32.7977804,21.6440151 32.3674791,23.0342264 32.3674791,23.0342264 C32.3674791,23.0342264 33.7866407,23.0549434 34.9267241,22.2077208 C36.0664047,21.3621283 36.496706,19.9713736 36.496706,19.9713736 C36.496706,19.9713736 35.0788875,19.9512679 33.937931,20.7984226 Z" id="Shape"></path>
                                        <path d="M30.9518094,25.3088151 C29.5934864,25.6838264 28.7111942,26.825434 28.7111942,26.825434 C28.7111942,26.825434 30.03151,27.3619019 31.3876171,26.9895396 C32.7475517,26.6169057 33.6290381,25.4734642 33.6290381,25.4734642 C33.6290381,25.4734642 32.3104011,24.9365208 30.9518094,25.3088151 Z" id="Shape"></path>
                                        <path d="M27.9536679,27.7122566 C26.5514955,27.6204226 25.3615191,28.413917 25.3615191,28.413917 C25.3615191,28.413917 26.4437187,29.3555547 27.8470998,29.4482038 C29.2488022,29.5400377 30.4418004,28.7470868 30.4418004,28.7470868 C30.4418004,28.7470868 29.3566461,27.8044981 27.9536679,27.7122566 Z" id="Shape"></path>
                                        <path d="M24.0305935,29.4951396 C22.6897967,29.0581132 21.349,29.5317509 21.349,29.5317509 C21.349,29.5317509 22.1785789,30.7139094 23.5188385,31.152634 C24.8570835,31.5908151 26.1999619,31.1181283 26.1999619,31.1181283 C26.1999619,31.1181283 25.3701143,29.9338642 24.0305935,29.4951396 Z" id="Shape"></path>
                                        <path d="M30.6646062,5.52314717 C31.1038385,6.89766792 32.263127,7.73911698 32.263127,7.73911698 C32.263127,7.73911698 32.7092087,6.35359245 32.2703793,4.98104151 C31.830677,3.60624906 30.6731343,2.76418868 30.6731343,2.76418868 C30.6731343,2.76418868 30.2257768,4.15032453 30.6646062,5.52314717 Z" id="Shape"></path>
                                        <path d="M20.0556116,28.0808151 C21.2041561,27.2451396 22.6221089,27.2783547 22.6221089,27.2783547 C22.6221089,27.2783547 22.1815336,28.6638792 21.032049,29.4995547 C19.8851833,30.3342792 18.4664247,30.3018792 18.4664247,30.3018792 C18.4664247,30.3018792 18.9078058,28.9159472 20.0556116,28.0808151 Z" id="Shape"></path>
                                        <path d="M13.6405771,35.9844453 C13.6018312,35.9844453 13.5630853,35.9733057 13.5285699,35.9518415 C13.4258966,35.8888075 13.3922541,35.7509887 13.4540327,35.644483 C13.4936515,35.5777811 14.4428929,33.9771396 16.4985753,32.5131623 C18.5333739,31.0637887 19.9321216,30.4510415 19.9908784,30.4260453 C20.100804,30.378566 20.2294646,30.4320226 20.2754628,30.5449132 C20.3218639,30.6583472 20.2703593,30.7901887 20.1591579,30.8379396 C20.1447205,30.8440528 18.7404664,31.4602642 16.7460926,32.8807019 C14.7726025,34.2864 13.8361869,35.8603472 13.8267858,35.8759019 C13.786294,35.9453208 13.7141071,35.9844453 13.6405771,35.9844453 Z" id="Shape"></path>
                                        <path d="M23.2914664,35.9844453 C23.218608,35.9844453 23.1466225,35.9453208 23.1053249,35.8759019 C23.0967967,35.8603472 22.159441,34.2864679 20.1860181,32.8807019 C18.1921143,31.4602642 16.7871887,30.8440528 16.7729528,30.8379396 C16.6625572,30.7901887 16.6097768,30.6582792 16.6566479,30.5449132 C16.7035191,30.4320226 16.8313739,30.3781585 16.9417024,30.4260453 C17.0009292,30.4509736 18.3992069,31.0637887 20.4340054,32.5131623 C22.4896207,33.9771396 23.4389292,35.5777132 23.478951,35.644483 C23.5403267,35.7509887 23.5066842,35.8888755 23.4044809,35.9518415 C23.3689583,35.9733057 23.3310181,35.9844453 23.2914664,35.9844453 Z" id="Shape"></path>
                                    </g>
                                </g>
                            </g>
                        </g>
                    </g>
                </g>
            </g>
        </g>
    </g>
</svg>