<?xml version="1.0" encoding="UTF-8" standalone="no"?>
<svg width="30px" height="23px" viewBox="0 0 30 23" version="1.1" xmlns="http://www.w3.org/2000/svg" xmlns:xlink="http://www.w3.org/1999/xlink">
    <!-- Generator: Sketch 47.1 (45422) - http://www.bohemiancoding.com/sketch -->
    <title>Shape</title>
    <desc>Created with Sketch.</desc>
    <defs></defs>
    <g id="Page-1" stroke="none" stroke-width="1" fill="none" fill-rule="evenodd">
        <g id="Desktop-HD-Copy-22" transform="translate(-455.000000, -2983.000000)" fill="#D21916">
            <g id="Group-20" transform="translate(177.000000, 2979.000000)">
                <g id="Group-19">
                    <path d="M307.707486,8.77660633 C307.707486,8.77660633 307.399371,6.61464155 306.504049,5.67182898 C305.366686,4.43650247 304.081575,4.42009875 303.512836,4.33842427 C299.317613,4.02985075 293.025236,4.02985075 293.025236,4.02985075 L292.991626,4.02985075 C292.991626,4.02985075 286.715998,4.02985075 282.519627,4.33842427 C281.919113,4.42009875 280.65075,4.43650247 279.512699,5.67182898 C278.61795,6.61475626 278.309835,8.77660633 278.309835,8.77660633 C278.309835,8.77660633 278,11.3125301 278,13.8157611 L278,14.1411972 L278,16.2053132 C278,18.741237 278.309835,21.2451563 278.309835,21.2451563 C278.309835,21.2451563 278.618065,23.4071211 279.512699,24.3661079 C280.65075,25.6176088 282.147274,25.5692006 282.830036,25.6989391 C285.220162,25.9429301 293.025236,26.0243752 293.025236,26.0243752 C293.025236,26.0243752 299.317613,25.9919119 303.512836,25.6989391 C304.081575,25.6176088 305.366686,25.6176088 306.504049,24.3661079 C307.399486,23.4071211 307.707486,21.2451563 307.707486,21.2451563 C307.707486,21.2451563 308,18.7413517 308,16.2053132 L308,14.2711652 L308,13.8157611 C308,11.3125301 307.707486,8.77660633 307.707486,8.77660633 L307.707486,8.77660633 Z M298.016786,14.6941059 L289.902449,19.066329 L289.902449,12.3364436 L289.902449,10.2882725 L293.577686,12.2880354 L298.016786,14.6941059 Z" id="Shape"></path>
                </g>
            </g>
        </g>
    </g>
</svg>